<svg width="50" height="50" viewBox="0 0 50 50" fill="none" xmlns="http://www.w3.org/2000/svg">
<path d="M43.063 9.95753L43.0632 9.9577C44.0813 10.9753 44.889 12.1836 45.44 13.5135C45.991 14.8433 46.2746 16.2687 46.2746 17.7082C46.2746 19.1477 45.991 20.5731 45.44 21.903C44.889 23.2329 44.0813 24.4411 43.0632 25.4588L43.0631 25.4588L40.8548 27.6672L25 43.522L9.14521 27.6672L6.93688 25.4588C4.88129 23.4033 3.72647 20.6153 3.72647 17.7082C3.72647 14.8012 4.88129 12.0132 6.93688 9.95762C8.99247 7.90203 11.7805 6.74721 14.6875 6.74721C17.5945 6.74721 20.3825 7.90203 22.4381 9.95762L24.6464 12.166C24.8417 12.3612 25.1583 12.3612 25.3535 12.166L27.5619 9.95762L27.562 9.95753C28.5796 8.93941 29.7879 8.13177 31.1177 7.58074C32.4476 7.02971 33.873 6.74609 35.3125 6.74609C36.752 6.74609 38.1774 7.02971 39.5073 7.58074C40.8371 8.13177 42.0454 8.93941 43.063 9.95753Z" stroke="#CACDD2" stroke-linecap="round" stroke-linejoin="round"/>
</svg>
